 <svg  version="1.0" xmlns="http://www.w3.org/2000/svg"  width="900.000000pt" height="873.000000pt" viewBox="0 0 900.000000 873.000000"  preserveAspectRatio="xMidYMid meet">  <g transform="translate(0.000000,873.000000) scale(0.100000,-0.100000)" fill="#2c3d59" stroke="none"> <path d="M4255 8538 c-4 -9 8 -36 24 -61 17 -25 39 -62 49 -84 9 -21 27 -52 38 -68 12 -17 32 -50 46 -75 13 -25 35 -62 47 -83 13 -21 35 -60 50 -87 14 -27 52 -91 83 -143 59 -97 95 -161 132 -232 12 -22 35 -61 52 -85 17 -25 41 -67 53 -93 13 -26 29 -53 36 -60 7 -8 22 -31 33 -54 18 -34 113 -197 142 -243 6 -8 14 -24 19 -36 5 -11 28 -51 50 -88 23 -36 41 -69 41 -72 0 -2 17 -31 38 -64 20 -32 49 -80 64 -107 16 -26 32 -55 37 -63 6 -8 36 -60 67 -115 31 -55 71 -125 89 -155 18 -30 35 -62 39 -70 8 -17 20 -37 59 -97 15 -24 27 -46 27 -51 0 -5 16 -31 35 -58 19 -27 35 -52 35 -56 0 -4 17 -36 39 -71 21 -35 56 -95 76 -133 55 -99 58 -105 88 -152 15 -23 37 -62 49 -85 12 -23 32 -56 45 -74 12 -17 23 -35 23 -38 0 -4 22 -44 49 -89 27 -44 58 -97 70 -116 12 -19 31 -55 44 -80 12 -25 35 -64 50 -87 15 -24 27 -47 27 -51 0 -5 12 -27 28 -49 40 -58 50 -74 73 -120 11 -23 27 -47 35 -54 8 -6 14 -17 14 -24 0 -7 7 -18 15 -25 8 -7 15 -20 15 -30 0 -9 9 -27 19 -39 11 -13 22 -28 23 -33 6 -18 48 10 48 31 0 10 7 24 15 31 8 7 15 16 15 21 0 5 12 28 27 52 42 64 51 80 62 105 6 12 29 50 51 83 22 33 40 64 40 69 0 5 20 38 45 74 25 37 45 72 45 80 0 7 7 19 15 26 8 7 15 17 15 22 0 6 14 30 30 55 17 24 30 51 30 59 0 7 4 14 9 14 5 0 18 17 29 38 46 87 57 107 63 112 3 3 23 37 44 75 21 39 41 71 46 73 5 2 20 27 34 55 27 56 46 89 56 97 3 3 16 28 30 55 13 28 36 68 51 89 16 21 28 43 28 48 0 5 18 36 40 68 22 33 44 69 49 82 5 13 25 47 45 75 20 29 36 55 36 58 0 6 115 206 140 245 6 8 14 24 19 35 5 11 20 36 33 55 12 19 32 53 43 75 11 22 22 42 25 45 18 18 50 72 55 92 5 19 -4 37 -42 84 -57 70 -355 370 -432 434 -30 25 -74 63 -99 85 -24 22 -52 44 -61 49 -9 5 -60 42 -113 83 -53 40 -101 73 -106 73 -5 0 -17 10 -28 21 -10 12 -30 27 -44 33 -14 6 -63 36 -110 67 -47 31 -105 66 -130 78 -25 12 -58 31 -75 41 -53 32 -170 90 -181 90 -6 0 -17 7 -24 15 -7 8 -18 15 -26 15 -7 0 -57 20 -110 45 -53 25 -101 45 -108 45 -7 0 -16 4 -22 9 -10 11 -137 57 -199 73 -22 6 -48 14 -57 19 -10 5 -34 13 -55 18 -21 5 -77 21 -126 35 -48 14 -98 26 -110 26 -13 0 -28 5 -34 11 -6 6 -37 15 -69 20 -33 4 -120 20 -194 33 -74 14 -153 26 -175 26 -22 0 -71 6 -110 14 -44 9 -175 17 -352 22 -246 6 -283 5 -288 -8z"/> <path d="M3685 8494 c-10 -4 -131 -28 -215 -42 -25 -5 -55 -14 -67 -20 -12 -7 -34 -12 -48 -12 -15 0 -41 -6 -58 -14 -18 -8 -59 -22 -92 -31 -33 -9 -75 -23 -93 -31 -18 -8 -43 -14 -55 -14 -12 0 -33 -6 -47 -13 -14 -7 -47 -21 -75 -31 -27 -10 -65 -24 -82 -32 -18 -8 -48 -20 -65 -28 -74 -32 -174 -79 -188 -87 -8 -5 -22 -12 -30 -15 -24 -8 -194 -99 -215 -114 -5 -4 -41 -24 -78 -44 -38 -20 -93 -55 -122 -76 -30 -22 -59 -40 -64 -40 -6 0 -26 -13 -44 -30 -19 -16 -38 -30 -41 -30 -7 0 -274 -199 -297 -222 -8 -8 -54 -48 -104 -90 -155 -130 -382 -369 -541 -568 -110 -138 -111 -139 -239 -330 -116 -173 -155 -248 -134 -260 17 -12 4279 -12 4298 -1 14 9 -6 51 -82 168 -15 24 -27 45 -27 49 0 3 -15 29 -34 57 -19 29 -48 80 -66 115 -18 34 -36 62 -41 62 -5 0 -9 9 -9 19 0 11 -7 26 -15 35 -8 8 -15 17 -15 20 0 3 -13 25 -30 49 -16 25 -30 50 -30 56 0 6 -20 40 -45 77 -25 36 -45 70 -45 75 0 9 -26 52 -98 164 -7 11 -17 32 -23 48 -6 15 -15 27 -20 27 -5 0 -9 5 -9 11 0 6 -20 45 -45 86 -25 40 -45 76 -45 79 0 3 -40 71 -88 152 -49 81 -91 154 -95 162 -4 8 -16 29 -27 45 -11 17 -24 40 -30 53 -5 12 -28 50 -50 83 -22 33 -40 67 -40 74 0 8 -5 17 -10 20 -6 4 -17 21 -25 38 -8 18 -28 55 -45 82 -16 28 -34 60 -39 72 -6 11 -15 24 -20 28 -6 3 -20 25 -31 48 -45 96 -88 137 -125 121z"/> <path d="M8025 6564 c-10 -16 -28 -45 -41 -64 -12 -19 -35 -60 -51 -90 -16 -30 -41 -74 -56 -97 -15 -24 -27 -45 -27 -49 0 -3 -14 -26 -30 -51 -17 -24 -37 -58 -46 -76 -9 -18 -20 -34 -24 -37 -4 -3 -13 -17 -21 -32 -8 -15 -34 -62 -59 -104 -25 -42 -55 -95 -68 -118 -12 -22 -26 -43 -30 -46 -5 -3 -24 -37 -44 -76 -20 -39 -50 -90 -67 -114 -17 -24 -31 -47 -31 -52 0 -5 -13 -28 -29 -51 -15 -23 -38 -60 -50 -82 -12 -22 -30 -53 -41 -70 -11 -16 -24 -39 -29 -50 -5 -11 -20 -36 -33 -55 -13 -19 -32 -53 -42 -75 -11 -21 -32 -57 -47 -79 -16 -21 -29 -43 -29 -48 0 -6 -20 -40 -45 -77 -25 -37 -45 -71 -45 -75 0 -5 -20 -39 -45 -76 -25 -37 -45 -71 -45 -75 0 -4 -17 -33 -39 -64 -21 -31 -49 -79 -62 -106 -14 -28 -37 -69 -52 -92 -15 -24 -27 -45 -27 -48 0 -3 -19 -36 -43 -73 -24 -37 -47 -74 -50 -82 -4 -8 -16 -28 -27 -45 -11 -16 -23 -37 -27 -45 -3 -8 -18 -33 -32 -55 -14 -22 -30 -49 -37 -60 -50 -91 -112 -197 -136 -232 -15 -23 -31 -50 -36 -60 -4 -10 -29 -56 -57 -101 -27 -45 -54 -90 -60 -100 -5 -10 -19 -31 -30 -47 -12 -17 -26 -41 -33 -55 -7 -14 -26 -47 -42 -75 -17 -27 -35 -60 -40 -72 -5 -12 -23 -41 -40 -64 -16 -23 -30 -46 -30 -50 0 -5 -13 -28 -29 -51 -16 -24 -46 -74 -67 -112 -64 -113 -86 -150 -106 -176 -41 -52 -90 -51 1302 -45 707 2 1292 4 1301 5 16 0 35 41 59 125 12 42 31 97 41 117 5 9 12 36 15 60 4 24 10 48 15 53 4 6 12 39 18 73 5 34 12 66 15 70 7 11 33 144 41 207 4 28 11 64 16 81 5 18 14 74 19 125 5 52 14 114 19 139 13 59 13 761 0 820 -5 25 -14 91 -19 148 -5 56 -14 110 -19 120 -4 9 -11 44 -15 77 -8 69 -23 141 -42 204 -8 25 -14 58 -14 75 0 17 -7 44 -15 60 -8 15 -15 37 -15 47 0 11 -12 52 -26 92 -14 39 -30 90 -36 112 -5 22 -13 44 -19 50 -5 5 -9 17 -9 27 0 10 -13 47 -30 81 -16 35 -30 67 -30 71 0 39 -271 577 -315 626 -8 9 -15 21 -15 26 0 5 -11 22 -24 38 l-23 30 -18 -30z"/> <path d="M438 5818 c-25 -46 -58 -134 -58 -155 0 -12 -6 -37 -14 -55 -21 -51 -46 -131 -46 -149 0 -9 -7 -30 -15 -45 -8 -16 -15 -41 -15 -55 0 -15 -7 -40 -15 -55 -8 -16 -15 -43 -15 -61 0 -17 -5 -44 -11 -60 -6 -15 -15 -55 -19 -88 -4 -33 -13 -89 -19 -125 -47 -268 -56 -382 -56 -685 0 -216 16 -466 34 -545 11 -47 25 -136 41 -252 5 -38 12 -74 17 -80 4 -7 10 -35 14 -63 4 -27 11 -63 17 -80 6 -16 18 -57 27 -90 9 -33 29 -101 46 -152 16 -51 29 -99 29 -108 0 -9 9 -37 21 -63 11 -26 25 -58 30 -72 6 -14 17 -38 25 -53 8 -16 14 -35 14 -43 0 -18 69 -162 81 -170 5 -3 9 -15 9 -27 0 -13 6 -31 14 -42 7 -11 36 -63 64 -115 76 -146 103 -194 115 -209 13 -16 33 -48 46 -76 19 -43 61 -57 61 -20 0 8 20 48 45 88 25 41 45 80 45 86 0 6 4 11 9 11 5 0 18 17 29 38 45 85 57 107 63 112 3 3 19 33 37 67 17 34 44 79 58 100 14 21 37 58 51 83 13 25 35 63 48 85 14 22 27 47 31 55 6 17 3 11 89 151 36 59 65 110 65 113 0 3 18 36 41 72 22 37 45 77 50 88 13 28 29 55 56 92 12 17 27 42 33 55 6 13 19 38 30 54 11 17 23 37 27 45 4 8 26 47 50 86 24 39 43 75 43 79 0 4 14 27 30 52 16 24 30 48 30 52 0 5 7 14 15 21 8 7 15 18 15 25 0 7 20 43 45 81 25 37 45 72 45 76 0 5 18 34 39 66 22 32 45 69 51 82 5 14 19 39 30 55 11 17 31 53 46 80 41 78 51 96 63 108 6 6 11 17 11 25 0 8 14 31 30 52 17 21 30 41 30 44 0 4 20 40 45 80 25 41 45 78 45 81 0 4 20 38 45 75 25 37 45 70 45 73 0 4 20 40 45 80 25 41 45 77 45 80 0 4 20 40 45 80 25 41 45 77 45 81 0 4 12 25 27 49 16 23 37 60 48 82 11 22 33 59 48 82 15 24 27 45 27 48 0 3 11 23 25 45 24 38 47 79 123 220 19 36 48 84 63 108 16 24 29 48 29 54 0 5 14 30 30 55 17 24 30 48 30 54 0 5 -486 9 -1300 9 l-1299 0 -13 -22z"/> <path d="M2364 3708 c-50 -84 -94 -160 -98 -168 -3 -8 -15 -28 -26 -45 -11 -16 -23 -37 -27 -45 -3 -8 -17 -32 -30 -53 -13 -20 -40 -67 -59 -104 -20 -36 -49 -84 -65 -106 -16 -22 -29 -48 -29 -58 0 -9 -4 -19 -8 -21 -8 -3 -68 -98 -83 -132 -5 -12 -18 -34 -29 -51 -11 -16 -24 -39 -29 -50 -5 -11 -21 -37 -35 -58 -14 -21 -26 -42 -26 -46 0 -5 -7 -14 -15 -21 -8 -7 -15 -19 -15 -27 0 -8 -13 -35 -30 -60 -16 -24 -30 -47 -30 -50 0 -3 -19 -35 -43 -72 -24 -36 -52 -84 -63 -106 -10 -22 -31 -57 -46 -79 -16 -21 -28 -43 -28 -48 0 -5 -20 -41 -45 -79 -25 -38 -45 -72 -45 -76 0 -3 -17 -33 -37 -67 -21 -33 -44 -72 -50 -86 -7 -14 -22 -38 -32 -55 -11 -16 -26 -41 -34 -55 -7 -14 -40 -69 -73 -124 -116 -194 -108 -174 -88 -204 27 -41 475 -487 511 -509 18 -11 52 -37 75 -59 36 -33 205 -162 264 -202 222 -147 360 -228 554 -323 47 -23 107 -52 133 -65 27 -13 56 -24 65 -24 9 0 26 -7 36 -15 11 -8 26 -15 33 -15 8 0 43 -14 78 -30 35 -17 75 -30 88 -30 14 0 30 -7 37 -15 7 -8 23 -15 37 -15 13 0 36 -6 51 -13 15 -8 81 -28 147 -46 66 -18 136 -38 155 -44 19 -6 53 -14 75 -18 48 -9 172 -35 235 -48 25 -6 71 -10 102 -11 31 0 69 -5 85 -11 33 -14 218 -27 503 -35 183 -6 207 -4 219 10 12 14 11 19 -3 34 -9 10 -16 22 -16 27 0 5 -6 16 -14 24 -7 9 -30 48 -51 86 -21 39 -46 82 -56 96 -10 15 -23 37 -29 50 -6 13 -19 38 -30 54 -26 41 -99 172 -123 220 -10 22 -34 63 -53 92 -19 28 -34 54 -34 57 0 4 -12 25 -27 49 -15 23 -37 60 -48 82 -11 22 -32 59 -48 82 -15 24 -27 46 -27 49 0 4 -20 40 -45 80 -25 39 -45 75 -45 79 0 4 -20 41 -45 82 -25 40 -45 78 -45 83 0 5 -6 15 -13 22 -7 7 -18 24 -25 38 -6 14 -16 32 -22 40 -26 41 -90 151 -90 156 0 5 -58 106 -100 174 -60 98 -80 133 -80 141 0 5 -12 28 -27 52 -15 23 -37 60 -48 82 -18 36 -45 81 -83 140 -6 11 -17 31 -23 45 -6 14 -21 39 -35 57 -13 17 -24 38 -24 47 0 8 -5 18 -11 21 -5 4 -14 17 -20 28 -10 23 -51 96 -88 157 -11 19 -25 44 -30 56 -5 11 -28 51 -50 88 -23 36 -41 70 -41 74 0 4 -20 39 -45 76 -25 38 -45 73 -45 77 0 4 -13 27 -29 51 -27 41 -71 120 -130 233 -15 28 -39 69 -54 92 -15 24 -27 47 -27 51 0 5 -13 28 -30 50 -16 23 -30 45 -30 48 0 4 -20 40 -45 81 -25 40 -45 76 -45 80 0 3 -17 33 -37 67 -21 33 -49 83 -63 110 -14 27 -30 51 -35 53 -6 2 -51 -66 -101 -149z"/> <path d="M3844 2348 c-4 -6 -2 -14 4 -16 7 -2 12 -8 12 -13 0 -5 12 -28 27 -52 38 -59 51 -80 59 -97 13 -25 74 -133 94 -165 11 -16 24 -39 29 -51 15 -34 75 -129 83 -132 4 -2 8 -8 8 -14 0 -6 20 -44 45 -85 25 -40 45 -79 45 -84 0 -6 14 -28 30 -49 17 -21 40 -58 51 -82 11 -24 29 -56 39 -73 11 -16 33 -55 50 -85 16 -30 43 -77 60 -105 16 -27 34 -59 40 -70 6 -11 19 -33 30 -50 11 -16 23 -37 26 -45 4 -8 13 -22 20 -30 6 -8 33 -55 59 -105 26 -49 53 -97 61 -106 8 -8 14 -20 14 -26 0 -5 14 -29 30 -51 17 -23 30 -46 30 -51 0 -5 7 -14 15 -21 8 -7 15 -18 15 -26 0 -7 13 -32 29 -56 16 -24 39 -63 52 -88 12 -25 35 -63 50 -85 24 -37 53 -87 117 -205 13 -25 30 -52 37 -60 7 -8 16 -25 19 -37 10 -31 25 -33 118 -17 152 27 177 33 197 43 11 6 29 11 41 11 23 0 254 66 281 81 10 5 28 9 41 9 13 0 32 7 42 15 11 8 29 15 40 15 12 0 32 6 46 13 14 7 50 22 80 32 30 11 64 25 75 32 11 7 26 13 34 13 37 0 404 186 546 278 11 6 27 15 35 19 8 3 31 19 51 35 20 15 40 28 45 28 12 0 139 86 154 105 7 8 17 15 22 15 11 0 175 124 203 154 11 11 52 46 90 77 131 106 357 336 482 491 97 120 163 207 163 215 0 5 10 19 23 33 27 29 146 206 155 229 3 9 15 30 28 46 12 17 34 53 48 80 15 28 40 74 57 103 16 29 27 57 24 62 -10 16 -4392 14 -4401 -2z"/> </g> </svg> 