 <svg  version="1.0" xmlns="http://www.w3.org/2000/svg"  width="900.000000pt" height="900.000000pt" viewBox="0 0 900.000000 900.000000"  preserveAspectRatio="xMidYMid meet">  <g transform="translate(0.000000,900.000000) scale(0.100000,-0.100000)" fill="#18324e" stroke="none"> <path d="M4236 8679 c-10 -6 -77 -14 -150 -18 -72 -4 -137 -10 -145 -15 -7 -5 -43 -12 -80 -17 -36 -4 -102 -15 -146 -24 -81 -16 -169 -31 -238 -42 -20 -3 -40 -9 -43 -14 -3 -5 -20 -9 -38 -9 -18 0 -41 -7 -52 -15 -10 -8 -30 -15 -44 -15 -14 0 -34 -7 -44 -15 -11 -8 -30 -15 -42 -15 -12 0 -35 -6 -51 -14 -15 -8 -62 -24 -103 -36 -41 -12 -98 -32 -125 -46 -28 -13 -58 -24 -66 -24 -9 0 -22 -7 -29 -15 -7 -8 -20 -15 -30 -15 -10 0 -23 -7 -30 -15 -7 -8 -20 -15 -28 -15 -17 0 -181 -80 -267 -130 -27 -16 -57 -29 -66 -30 -8 0 -26 -11 -39 -25 -13 -14 -28 -25 -33 -25 -5 0 -35 -17 -66 -38 -31 -21 -78 -51 -106 -67 -27 -15 -64 -40 -81 -54 -17 -14 -67 -51 -110 -81 -43 -30 -92 -70 -108 -87 -16 -18 -34 -33 -39 -33 -16 0 -209 -175 -338 -307 -147 -150 -265 -287 -376 -437 -29 -39 -63 -84 -76 -101 -13 -16 -37 -52 -52 -80 -16 -27 -46 -75 -67 -106 -21 -31 -38 -61 -38 -66 0 -5 -11 -20 -25 -33 -14 -13 -25 -29 -25 -36 0 -17 -16 -52 -40 -89 -10 -16 -35 -64 -56 -105 -20 -41 -43 -87 -50 -102 -8 -14 -14 -33 -14 -41 0 -8 -7 -20 -15 -27 -8 -7 -15 -20 -15 -30 0 -10 -7 -23 -15 -30 -8 -7 -15 -20 -15 -29 0 -8 -11 -38 -24 -66 -14 -27 -34 -84 -46 -125 -12 -41 -28 -90 -36 -108 -8 -18 -14 -41 -14 -50 0 -10 -7 -27 -15 -38 -8 -10 -15 -30 -15 -44 0 -14 -7 -34 -15 -44 -8 -11 -15 -34 -15 -52 0 -18 -4 -35 -9 -38 -5 -3 -11 -23 -15 -43 -18 -120 -26 -166 -41 -238 -9 -44 -20 -110 -24 -146 -5 -37 -12 -73 -17 -80 -5 -8 -11 -72 -15 -144 -4 -71 -12 -143 -18 -158 -15 -38 -15 -436 0 -474 6 -15 14 -91 18 -168 3 -77 10 -146 15 -153 7 -11 20 -89 40 -242 6 -45 30 -162 46 -220 6 -25 15 -64 19 -88 4 -24 13 -48 19 -54 7 -7 12 -22 12 -34 0 -12 6 -35 14 -51 8 -15 19 -46 25 -68 23 -86 52 -170 66 -192 8 -12 15 -31 15 -41 0 -10 7 -27 15 -38 8 -10 15 -29 15 -41 0 -12 4 -24 9 -27 10 -6 51 -87 51 -100 0 -8 94 -199 113 -231 7 -11 25 -42 40 -70 15 -27 38 -68 52 -90 14 -22 28 -47 32 -55 4 -8 19 -33 33 -55 15 -22 44 -67 65 -100 22 -33 50 -74 64 -91 15 -17 52 -68 84 -112 33 -45 63 -82 68 -82 5 0 12 -8 16 -17 19 -52 369 -415 507 -526 55 -43 108 -90 119 -103 10 -13 24 -24 32 -24 7 0 18 -7 25 -15 7 -8 48 -40 92 -71 44 -30 87 -64 96 -75 9 -10 21 -19 27 -19 5 0 40 -20 76 -43 36 -24 72 -47 80 -51 34 -17 61 -35 82 -53 12 -11 35 -23 50 -27 16 -4 47 -19 70 -34 52 -33 165 -92 177 -92 15 0 159 -71 165 -81 4 -5 16 -9 28 -9 12 0 31 -7 41 -15 11 -8 28 -15 38 -15 9 0 32 -8 50 -18 18 -10 60 -27 93 -36 33 -10 68 -22 77 -27 10 -5 28 -9 41 -9 13 0 32 -7 43 -15 10 -8 33 -15 50 -15 17 0 37 -6 43 -14 7 -8 28 -16 49 -19 20 -2 63 -12 95 -21 32 -9 74 -16 93 -16 19 0 48 -7 63 -15 16 -8 42 -14 57 -14 44 0 175 -21 209 -33 17 -6 95 -14 175 -18 80 -4 158 -13 173 -19 38 -15 436 -15 474 0 15 6 78 13 138 15 61 3 135 11 165 19 51 12 87 19 255 47 33 5 85 14 115 19 30 5 72 12 93 15 20 4 40 10 43 15 3 5 20 9 37 9 18 0 41 7 51 15 11 8 31 15 45 15 14 0 35 7 45 15 11 8 28 15 38 15 9 0 32 6 50 14 18 8 66 24 105 36 40 12 75 25 78 31 4 5 17 9 29 9 13 0 29 7 36 15 7 8 20 15 29 15 10 0 26 7 37 15 10 8 26 15 35 15 9 0 45 15 80 33 35 17 84 40 109 50 25 11 59 29 75 41 17 13 47 28 67 35 21 7 40 17 43 22 4 5 14 9 24 9 10 0 28 11 41 25 13 14 27 25 32 25 5 0 46 24 91 53 45 29 93 60 107 69 14 9 50 35 80 57 30 22 71 49 90 60 19 11 41 29 48 40 7 12 19 21 26 21 8 0 24 12 35 26 11 14 51 49 88 77 120 91 533 510 533 542 0 3 14 18 30 32 17 13 30 31 30 39 0 8 9 19 21 26 11 7 29 29 40 48 11 19 38 60 60 90 22 30 48 66 57 80 9 14 40 62 69 107 29 45 53 86 53 91 0 5 11 19 25 32 14 13 25 30 25 37 0 8 17 44 37 81 64 118 78 146 102 207 13 33 30 67 37 76 8 8 14 22 14 31 0 8 14 40 30 71 17 31 30 64 30 72 0 9 6 26 14 38 8 12 19 40 24 62 13 53 50 163 68 198 8 16 14 39 14 51 0 12 7 31 15 42 8 10 15 33 15 51 0 17 4 34 9 37 5 3 11 23 15 43 3 21 10 63 15 93 5 30 14 84 20 120 6 36 15 83 20 105 6 22 11 56 11 76 0 20 6 52 14 70 8 19 16 90 19 164 3 72 10 143 16 158 17 45 14 404 -4 474 -9 33 -15 101 -15 159 0 57 -5 115 -11 131 -9 24 -24 110 -43 253 -6 46 -31 163 -46 220 -6 25 -14 61 -17 80 -3 19 -12 44 -19 55 -8 11 -14 29 -14 41 0 12 -6 35 -14 51 -8 15 -20 48 -27 73 -30 110 -62 200 -95 263 -8 16 -14 37 -14 47 0 10 -4 21 -9 24 -10 6 -51 87 -51 100 0 8 -94 199 -114 231 -6 11 -26 47 -44 80 -18 33 -41 74 -52 90 -11 17 -23 37 -27 45 -8 14 -49 79 -111 175 -51 78 -194 265 -202 265 -5 0 -15 11 -22 24 -53 97 -487 531 -584 584 -13 7 -24 17 -24 21 0 10 -203 163 -273 206 -26 17 -81 54 -122 83 -42 28 -81 52 -88 52 -7 0 -18 5 -25 12 -22 22 -357 198 -377 198 -14 0 -94 41 -101 51 -3 5 -14 9 -24 9 -10 0 -31 6 -47 14 -69 35 -159 68 -268 97 -22 6 -53 17 -68 25 -16 8 -39 14 -51 14 -12 0 -30 6 -41 14 -11 7 -36 16 -55 19 -19 3 -53 10 -75 16 -52 15 -180 41 -225 47 -133 17 -189 27 -215 36 -16 6 -95 14 -175 18 -80 4 -158 12 -173 19 -37 15 -455 15 -481 0z m544 -1658 c25 -7 63 -15 85 -18 22 -3 49 -12 60 -19 11 -8 32 -14 47 -14 15 0 30 -4 33 -10 3 -5 14 -10 23 -10 14 0 171 -75 240 -115 162 -95 409 -333 477 -462 14 -26 32 -54 41 -64 21 -23 84 -151 84 -170 0 -9 7 -22 15 -29 8 -7 15 -21 15 -31 0 -10 5 -21 10 -24 6 -3 10 -19 10 -34 0 -15 5 -32 12 -39 6 -6 15 -33 19 -59 4 -27 14 -70 21 -98 18 -68 18 -500 0 -570 -7 -27 -17 -70 -22 -95 -4 -25 -16 -65 -25 -90 -9 -25 -19 -56 -22 -70 -3 -14 -12 -29 -19 -33 -8 -4 -14 -16 -14 -26 0 -10 -12 -40 -27 -67 -15 -27 -36 -67 -48 -89 -27 -51 -76 -127 -90 -140 -6 -5 -31 -37 -57 -70 -88 -115 -260 -262 -393 -336 -99 -55 -150 -79 -164 -79 -10 0 -22 -5 -29 -12 -11 -11 -66 -34 -107 -44 -11 -3 -29 -10 -40 -14 -11 -5 -36 -11 -55 -14 -19 -3 -57 -10 -85 -17 -71 -18 -503 -18 -570 -1 -27 7 -71 17 -96 22 -26 5 -55 13 -65 18 -11 6 -39 16 -64 23 -25 7 -52 19 -61 26 -8 7 -22 13 -31 13 -17 0 -104 44 -128 65 -8 7 -26 16 -40 20 -14 4 -41 21 -60 36 -19 16 -38 29 -43 29 -10 0 -88 64 -170 140 -90 83 -224 254 -263 335 -8 16 -28 55 -44 85 -17 30 -30 62 -30 72 0 10 -7 21 -15 24 -8 4 -15 17 -15 29 0 13 -4 27 -10 30 -5 3 -10 17 -10 31 0 14 -5 35 -12 47 -6 12 -15 40 -19 62 -4 22 -14 63 -21 90 -18 70 -18 501 0 570 8 28 16 68 19 90 3 22 12 49 19 60 8 11 14 32 14 47 0 15 5 30 10 33 6 3 10 17 10 31 0 13 4 24 9 24 5 0 13 10 16 23 7 21 65 141 89 182 31 53 87 134 96 140 6 4 22 24 35 45 25 40 154 171 195 198 14 10 53 38 88 65 35 26 68 47 74 47 7 0 21 9 32 19 28 26 214 121 237 121 10 0 21 5 24 10 3 6 18 10 33 10 15 1 38 7 52 15 14 8 36 14 49 15 14 0 38 4 55 9 17 6 47 14 66 19 51 14 495 8 550 -7z m105 -3448 c33 -5 67 -13 75 -18 8 -5 38 -10 65 -11 70 -1 163 -18 177 -32 7 -7 28 -12 48 -12 19 0 44 -7 54 -15 11 -8 29 -15 41 -15 12 0 26 -5 32 -11 6 -6 26 -14 44 -19 61 -15 200 -67 212 -79 6 -6 19 -11 28 -11 9 0 22 -7 29 -15 7 -8 21 -15 31 -15 9 0 44 -17 76 -39 32 -21 72 -41 90 -45 17 -4 37 -14 44 -22 6 -8 16 -14 21 -14 6 0 27 -13 48 -30 21 -16 40 -30 44 -30 8 0 146 -95 171 -117 11 -10 54 -45 95 -78 94 -74 330 -312 390 -391 24 -32 55 -70 67 -82 24 -26 123 -169 123 -178 0 -4 13 -23 28 -43 15 -20 39 -58 52 -86 52 -109 73 -151 86 -166 8 -8 14 -23 14 -31 0 -9 7 -21 15 -28 8 -7 15 -20 15 -30 0 -10 7 -23 15 -30 41 -34 6 -81 -180 -245 -32 -27 -64 -56 -71 -63 -8 -8 -37 -29 -65 -48 -27 -19 -58 -42 -67 -50 -27 -24 -134 -98 -172 -120 -19 -10 -61 -38 -93 -61 -33 -24 -67 -43 -77 -43 -9 0 -28 -9 -41 -19 -34 -26 -89 -59 -121 -72 -16 -6 -28 -15 -28 -20 0 -5 -8 -9 -19 -9 -10 0 -24 -7 -31 -15 -7 -8 -19 -15 -26 -15 -13 0 -72 -26 -209 -91 -33 -16 -69 -29 -81 -29 -11 0 -24 -3 -28 -7 -12 -12 -100 -43 -121 -43 -12 0 -25 -4 -31 -10 -5 -5 -38 -16 -74 -24 -36 -9 -66 -20 -68 -26 -2 -5 -22 -10 -44 -10 -22 0 -52 -6 -66 -14 -40 -20 -122 -40 -162 -38 -19 1 -58 -7 -86 -18 -38 -14 -54 -16 -63 -7 -8 8 -23 7 -58 -5 -81 -28 -154 -32 -553 -31 -382 1 -470 6 -542 33 -27 10 -41 11 -49 3 -7 -7 -28 -5 -72 9 -33 10 -67 16 -74 14 -15 -6 -138 25 -170 42 -12 7 -38 12 -58 12 -20 0 -43 7 -51 15 -9 8 -29 15 -45 15 -17 0 -49 9 -71 20 -23 11 -49 20 -58 20 -8 0 -40 10 -70 21 -30 12 -67 23 -82 26 -15 3 -33 11 -39 19 -6 8 -19 14 -28 14 -9 0 -25 7 -35 15 -11 8 -26 15 -33 15 -31 0 -427 207 -501 262 -26 19 -54 38 -62 41 -23 10 -51 29 -86 57 -17 14 -51 37 -75 52 -61 38 -164 121 -264 213 -46 43 -95 85 -107 93 -63 44 -70 76 -34 143 13 24 54 105 91 179 37 74 81 151 96 171 16 20 29 39 29 43 0 9 102 156 109 156 3 0 17 17 31 38 83 125 373 417 508 511 19 13 46 35 60 48 14 13 53 40 86 60 34 20 77 49 97 65 20 15 41 28 47 28 5 0 15 7 22 15 7 8 27 17 45 21 18 3 43 17 56 30 12 13 28 24 35 24 11 0 37 12 94 41 78 41 207 92 275 108 17 4 39 12 50 18 34 17 88 35 132 42 23 4 48 13 55 19 8 6 27 10 44 10 16 -1 39 4 51 11 12 6 36 11 54 11 33 0 126 15 189 30 43 10 673 5 755 -7z"/> </g> </svg> 